<?xml version="1.0" encoding="UTF-8" standalone="no"?>
<!DOCTYPE svg PUBLIC "-//W3C//DTD SVG 1.1//EN" "http://www.w3.org/Graphics/SVG/1.1/DTD/svg11.dtd">
<svg width="100%" height="100%" viewBox="0 0 1080 1080" version="1.1" xmlns="http://www.w3.org/2000/svg" xmlns:xlink="http://www.w3.org/1999/xlink" xml:space="preserve" xmlns:serif="http://www.serif.com/" style="fill-rule:evenodd;clip-rule:evenodd;stroke-linejoin:round;stroke-miterlimit:2;">
    <g transform="matrix(1,0,0,1,-5024.3,0)">
        <g id="icon" transform="matrix(0.9,0,0,1.71429,5024.3,0)">
            <rect x="0" y="0" width="1200" height="630" style="fill:none;"/>
            <g transform="matrix(1.11111,0,0,0.583333,-4217.45,0)">
                <path d="M4875.7,180.62C4875.7,80.933 4794.77,0 4695.08,0L3976.32,0C3876.64,0 3795.7,80.933 3795.7,180.62L3795.7,899.38C3795.7,999.067 3876.64,1080 3976.32,1080L4695.08,1080C4794.77,1080 4875.7,999.067 4875.7,899.38L4875.7,180.62Z" style="fill:white;"/>
            </g>
            <g transform="matrix(3.28136,0,0,-1.72272,-77163.7,11800.9)">
                <path d="M23689.9,6680.14C23680.2,6688.82 23667.7,6693.62 23654.8,6693.63C23628.8,6693.64 23586.7,6693.66 23586.7,6693.66C23571.5,6693.66 23559.1,6681.86 23559.1,6667.33C23559.1,6652.8 23571.5,6641 23586.7,6641L23657.9,6641C23670.9,6641 23683.4,6645.8 23693,6654.49C23696.1,6657.21 23698.3,6659.26 23698.3,6659.26C23698.3,6659.26 23700.7,6657.13 23703.8,6654.33C23713.4,6645.74 23725.9,6641 23738.8,6641L23810.4,6641C23825.7,6641 23838.1,6652.8 23838.1,6667.33C23838.1,6681.86 23825.7,6693.66 23810.4,6693.66L23742,6693.66C23729.1,6693.66 23716.7,6688.92 23707.1,6680.33C23702.4,6676.1 23698.3,6672.5 23698.3,6672.5C23698.3,6672.5 23694.5,6676 23689.9,6680.14ZM23829.6,6668.63L23706.6,6668.63L23709.7,6671.37L23769,6671.37L23771.4,6673.87L23712.5,6673.87L23712.7,6674.06C23713.5,6674.78 23714.3,6675.47 23715.2,6676.13L23773.6,6676.13L23775.3,6677.9L23717.7,6677.9C23718.7,6678.58 23719.7,6679.22 23720.8,6679.82L23777.1,6679.82L23778.8,6681.58L23724.4,6681.58C23725.5,6682.07 23726.7,6682.51 23727.8,6682.9L23780.1,6682.9L23780.9,6683.71L23730.5,6683.71C23734.2,6684.73 23738.1,6685.25 23742,6685.25L23810.4,6685.25C23820.5,6685.25 23828.9,6678.01 23829.6,6668.63ZM23690.1,6668.63L23684.2,6673.9C23676.1,6681.18 23665.7,6685.21 23654.8,6685.22L23645.3,6685.22L23629.4,6668.63L23690.1,6668.63ZM23669.5,6650.95C23665.7,6649.93 23661.9,6649.41 23657.9,6649.41L23586.7,6649.41C23576.7,6649.41 23568.3,6656.62 23567.6,6665.97L23693,6665.97C23693.1,6665.94 23693.1,6665.91 23693.1,6665.88C23693,6665.76 23692.8,6665.64 23692.7,6665.51L23690.2,6663.29L23624.3,6663.29L23621.9,6660.79L23687.5,6660.79L23687.4,6660.73C23686.5,6659.96 23685.7,6659.22 23684.8,6658.53L23619.8,6658.53L23618.1,6656.76L23682.3,6656.76C23681.3,6656.07 23680.2,6655.43 23679.1,6654.84L23616.2,6654.84L23614.5,6653.07L23675.5,6653.07C23674.4,6652.59 23673.3,6652.14 23672.1,6651.75L23613.3,6651.75L23612.5,6650.95L23669.5,6650.95ZM23748,6649.41L23763.9,6665.97L23703.6,6665.97C23703.6,6665.94 23703.6,6665.91 23703.5,6665.88C23703.7,6665.77 23703.8,6665.65 23703.9,6665.53C23703.9,6665.53 23706.3,6663.4 23709.4,6660.6C23717.5,6653.39 23727.9,6649.41 23738.8,6649.41L23748,6649.41Z"/>
            </g>
        </g>
    </g>
</svg>
