<?xml version="1.0" encoding="UTF-8" standalone="no"?>
<!DOCTYPE svg PUBLIC "-//W3C//DTD SVG 1.1//EN" "http://www.w3.org/Graphics/SVG/1.1/DTD/svg11.dtd">
<svg width="100%" height="100%" viewBox="0 0 1080 1080" version="1.1" xmlns="http://www.w3.org/2000/svg" xmlns:xlink="http://www.w3.org/1999/xlink" xml:space="preserve" xmlns:serif="http://www.serif.com/" style="fill-rule:evenodd;clip-rule:evenodd;stroke-linejoin:round;stroke-miterlimit:2;">
    <g transform="matrix(1,0,0,1,-6302.9,0)">
        <g id="icon" transform="matrix(0.9,0,0,1.71429,6302.9,0)">
            <rect x="0" y="0" width="1200" height="630" style="fill:none;"/>
            <clipPath id="_clip1">
                <rect x="0" y="0" width="1200" height="630"/>
            </clipPath>
            <g clip-path="url(#_clip1)">
                <g transform="matrix(1.11111,0,0,0.583333,-4217.45,0)">
                    <path d="M4875.7,180.62C4875.7,80.933 4794.77,0 4695.08,0L3976.32,0C3876.64,0 3795.7,80.933 3795.7,180.62L3795.7,899.38C3795.7,999.067 3876.64,1080 3976.32,1080L4695.08,1080C4794.77,1080 4875.7,999.067 4875.7,899.38L4875.7,180.62Z" style="fill:white;"/>
                </g>
                <g transform="matrix(1.15826,0,-8.97438e-33,0.429213,-25.4602,-97.045)">
                    <g transform="matrix(-3.92012e-16,-1.37037,-0.983403,6.30499e-16,1578.62,23380.2)">
                        <path d="M16374.3,596.956C16374.3,596.956 16309.5,734.264 16194.3,977.22C16150.4,1069.88 16177.9,1226.65 16350.9,1250.48C16361.7,1251.96 16374.9,1249.08 16374.9,1249.08L16374.3,596.956Z"/>
                    </g>
                    <g transform="matrix(0.986358,0,0,1.39742,-27264,-492.68)">
                        <path d="M28193.5,1369.94L28193.4,1497.82C28193.4,1497.82 28166.7,1456.35 28122.6,1369.94L28193.5,1369.94ZM28122.6,1369.94L28016.9,1369.94L28015.6,1369.12L28010.2,1365.56L28120.4,1365.56C28112.9,1350.97 28105,1335.14 28096.7,1318.05L28193.6,1318.05L28193.5,1365.56L28371.1,1365.56L28365.7,1369.12L28364.4,1369.94L28193.5,1369.94L28193.5,1365.56L28120.4,1365.56L28122.6,1369.94ZM28096.7,1318.05L27954.1,1318.05L27950.2,1313.83L27945.6,1308.74L28092.2,1308.74L28088.5,1301.16L28082.6,1288.78L28193.6,1288.78L28193.6,1308.74L28435.7,1308.74L28431.1,1313.83L28427.2,1318.05L28193.6,1318.05L28193.6,1308.74L28092.2,1308.74L28096.7,1318.05ZM28082.6,1288.78L27929.6,1288.78L27925.7,1283.45C27924.2,1281.31 27922.7,1279.16 27921.2,1277.02L27919.3,1274.14L28075.7,1274.14L28072,1266.38L28055.7,1231.26L28193.7,1231.26L28193.6,1274.14L28462,1274.14L28460.1,1277.02C28458.6,1279.16 28457.1,1281.31 28455.6,1283.45L28451.7,1288.78L28193.6,1288.78L28193.6,1274.14L28075.7,1274.14L28082.6,1288.78ZM28055.7,1231.26L27895.5,1231.26C27892.2,1224.17 27889.2,1216.94 27886.4,1209.59L28046,1209.59L28036.2,1188L28035.7,1186.65L28193.7,1186.65L28193.7,1209.59L28494.9,1209.59C28492.1,1216.95 28489.1,1224.18 28485.9,1231.26L28193.7,1231.26L28193.7,1209.59L28046,1209.59L28054.5,1228.67L28055.7,1231.26ZM28193.7,1150.41L28193.7,1172.37L28506.4,1172.37C28505.2,1177.17 28503.9,1181.94 28502.6,1186.65L28193.7,1186.65L28193.7,1172.37L28029.4,1172.37L28035.7,1186.65L27878.7,1186.65C27877.4,1181.93 27876.1,1177.17 27874.9,1172.37L28029.4,1172.37L28019.8,1150.41L28224,1150.41L28193.7,1150.41ZM28019.8,1150.41L27870.4,1150.41C27868.7,1140.48 27867.4,1130.39 27866.7,1120.18L28514.7,1120.18C28513.9,1130.4 28512.6,1140.49 28510.9,1150.41L28193.7,1150.41L28193.8,1120.18L28008.4,1120.18C28010.9,1128.7 28013.9,1136.79 28017.2,1144.35L28019.8,1150.41ZM28513.1,1055.42C28514.8,1068.51 28515.6,1081.86 28515.6,1095.4L28515.6,1096.09L27865.7,1096.09L27865.7,1095.4C27865.7,1081.86 27866.5,1068.51 27868.2,1055.42L28513.1,1055.42ZM28503.3,1006.48C28504,1009.06 28504.7,1011.65 28505.4,1014.23L28506.3,1018.09L27875,1018.09L27876,1014.23C27876.7,1011.65 27877.4,1009.06 27878,1006.48L27879.3,1002.16L28502,1002.16L28503.3,1006.48ZM28345.3,929.98L28470.3,929.98C28482,949.733 28491.7,970.828 28499.1,992.98L27882.2,992.98C27889.6,970.831 27899.3,949.737 27911,929.98L28171.1,929.98L28171,992.98L28361.5,992.98C28356.8,971.478 28351.4,950.441 28345.3,929.98ZM28314.6,840.774L28392.4,840.774C28421.1,863.54 28445.9,891.049 28465.5,922.113L28343,922.113L28345.3,929.98L28171.1,929.98L28171.1,922.113L27915.8,922.113C27935.4,891.046 27960.2,863.532 27988.9,840.774L28171.2,840.774L28171.1,922.113L28343,922.113C28334.5,893.802 28324.8,866.6 28314.6,840.774ZM28171.2,840.774L28171.2,832.737L27999.5,832.737C28048.2,797.14 28107.2,774.806 28171.2,771.025L28171.4,581.266C28171.4,581.266 28234.6,662.361 28291.3,786.38C28324.1,797.069 28354.6,812.829 28381.9,832.737L28311.4,832.737L28312.4,835.277L28314.6,840.774L28171.2,840.774ZM28213.5,771.243L28212.8,771.194L28212.6,771.184L28212.6,771.186L28211.2,771.091L28211,771.078L28211,771.08L28209.5,770.989L28208.7,770.949L28208.5,770.935L28207.9,770.905L28208,770.906L28207.7,770.891L28207.1,770.863L28206.8,770.849L28206.3,770.824L28206,770.81L28205.5,770.786L28205.2,770.772L28204.7,770.75L28204.7,770.751L28204.3,770.736L28203.9,770.717L28203.9,770.717L28203.5,770.703L28202.2,770.655L28201.9,770.642L28201.4,770.627L28201,770.615L28200.6,770.602L28199.8,770.578L28199.4,770.567L28199.4,770.567L28198.9,770.556L28198.5,770.546L28197.3,770.519L28197.3,770.519L28196.9,770.511L28196.5,770.503L28196,770.496L28195.6,770.49L28193.9,770.469L28192.3,770.457L28190.7,770.453L28189.3,770.456L28188.2,770.462L28186.9,770.474C28181.7,770.534 28176.4,770.722 28171.2,771.048L28171.2,832.737L28311.4,832.737C28304.9,816.716 28298.2,801.242 28291.3,786.397C28267.1,778.468 28241.5,773.334 28215.1,771.363L28215.2,771.368L28215.1,771.36L28215.1,771.363L28214.4,771.305L28214.4,771.309L28214.3,771.302L28213.6,771.249L28213.5,771.243ZM28213.5,771.243L28213.4,771.241L28213.5,771.243ZM28208.5,770.935L28208.5,770.934L28208.5,770.935ZM28205.5,770.786L28205.5,770.787L28205.5,770.786ZM28200.6,770.602L28200.6,770.602L28200.6,770.602ZM28195.6,770.49L28195.6,770.49L28195.6,770.49Z"/>
                    </g>
                    <g transform="matrix(0.959435,0,0,1.37651,-26506.6,-474.472)">
                        <path d="M28293.6,1190.3C28285,1194.34 28276.2,1198.45 28267.2,1202.62C28174.8,1245.69 28018.5,1218.74 27994.8,1049.12C27994.7,1049 27994.7,1048.88 27994.7,1048.76L27719.4,1048.49C27719.4,1048.49 27875.9,970.961 28115.7,859.118C28183.9,827.335 28350.9,856.71 28370,1031L28646.3,1031.26C28646.3,1031.26 28608.7,1043.62 28538.1,1076.47L28294.2,1190.33L28293.6,1190.3Z"/>
                    </g>
                </g>
            </g>
        </g>
    </g>
</svg>
